<?xml version="1.0" encoding="UTF-8" standalone="no"?>
<!-- Created with Inkscape (http://www.inkscape.org/) -->

<svg
   width="148.08455mm"
   height="15.850568mm"
   viewBox="0 0 148.08455 15.850568"
   version="1.1"
   id="svg1"
   xml:space="preserve"
   xmlns="http://www.w3.org/2000/svg"
   xmlns:svg="http://www.w3.org/2000/svg"><defs
     id="defs1"><linearGradient
       id="swatch23"><stop
         style="stop-color:#00ff00;stop-opacity:1;"
         offset="0"
         id="stop23" /></linearGradient><linearGradient
       id="swatch22"><stop
         style="stop-color:#00ff00;stop-opacity:1;"
         offset="0"
         id="stop22" /></linearGradient><linearGradient
       id="swatch21"><stop
         style="stop-color:#00ff00;stop-opacity:1;"
         offset="0"
         id="stop21" /></linearGradient></defs><g
     id="layer2"
     transform="translate(-33.121516,-226.18724)"><g
       id="g87"
       transform="translate(6.3610147,-45.649635)"><g
         id="g36"><g
           id="g34-6"
           transform="matrix(1.361688,0,0,1.361688,-100.42888,-101.24935)"><g
             id="g35"><g
               id="g34"
               transform="translate(50.069525,-0.04208681)"><circle
                 style="fill:currentColor;fill-opacity:1;stroke:#04ff00;stroke-width:0.1;stroke-linecap:round;stroke-linejoin:round;stroke-dasharray:none;stroke-opacity:1;paint-order:markers stroke fill"
                 id="path31"
                 cx="91.97747"
                 cy="279.85031"
                 r="0.95882946" /><circle
                 style="fill:currentColor;fill-opacity:1;stroke:#04ff00;stroke-width:0.1;stroke-linecap:round;stroke-linejoin:round;stroke-dasharray:none;stroke-opacity:1;paint-order:markers stroke fill"
                 id="path32"
                 cx="89.861031"
                 cy="279.85031"
                 r="0.53787994" /><circle
                 style="fill:currentColor;fill-opacity:1;stroke:#04ff00;stroke-width:0.1;stroke-linecap:round;stroke-linejoin:round;stroke-dasharray:none;stroke-opacity:1;paint-order:markers stroke fill"
                 id="path33"
                 cx="88.469559"
                 cy="279.85031"
                 r="0.23386084" /></g><path
               style="fill:currentColor;fill-opacity:1;stroke:#ffffff;stroke-width:0.367191;stroke-linecap:square;stroke-linejoin:round;stroke-dasharray:none;stroke-opacity:0;paint-order:markers stroke fill"
               d="m 93.587348,279.76937 44.150912,-0.13953 -0.004,0.3714 z"
               id="path35" /></g></g></g><g
         id="g36-5"
         transform="matrix(-1,0,0,1,201.60555,-0.02338261)"><g
           id="g34-6-4"
           transform="matrix(1.361688,0,0,1.361688,-100.42888,-101.24935)"><g
             id="g35-1"><g
               id="g34-2"
               transform="translate(50.069525,-0.04208681)"><circle
                 style="fill:currentColor;fill-opacity:1;stroke:#04ff00;stroke-width:0.1;stroke-linecap:round;stroke-linejoin:round;stroke-dasharray:none;stroke-opacity:1;paint-order:markers stroke fill"
                 id="path31-0"
                 cx="91.97747"
                 cy="279.85031"
                 r="0.95882946" /><circle
                 style="fill:currentColor;fill-opacity:1;stroke:#04ff00;stroke-width:0.1;stroke-linecap:round;stroke-linejoin:round;stroke-dasharray:none;stroke-opacity:1;paint-order:markers stroke fill"
                 id="path32-0"
                 cx="89.861031"
                 cy="279.85031"
                 r="0.53787994" /><circle
                 style="fill:currentColor;fill-opacity:1;stroke:#04ff00;stroke-width:0.1;stroke-linecap:round;stroke-linejoin:round;stroke-dasharray:none;stroke-opacity:1;paint-order:markers stroke fill"
                 id="path33-1"
                 cx="88.469559"
                 cy="279.85031"
                 r="0.23386084" /></g><path
               style="fill:currentColor;fill-opacity:1;stroke:#ffffff;stroke-width:0.367191;stroke-linecap:square;stroke-linejoin:round;stroke-dasharray:none;stroke-opacity:0;paint-order:markers stroke fill"
               d="m 93.587348,279.76937 44.150912,-0.13953 -0.004,0.3714 z"
               id="path35-4" /></g></g></g><g
         id="g86"><path
           style="fill:currentColor;fill-opacity:1;stroke:#ffffff;stroke-width:0.024;stroke-linecap:square;stroke-linejoin:round;stroke-dasharray:none;stroke-opacity:0;paint-order:markers stroke fill"
           d="m 100.62742,279.39128 c -0.0127,-0.0981 -0.0947,-0.25036 -0.14294,-0.3568 -0.0482,-0.10644 -0.0627,-0.16708 -0.0694,-0.23461 -0.007,-0.0675 -0.006,-0.14195 0.017,-0.20809 0.0227,-0.0661 0.0672,-0.12403 0.15002,-0.17088 0.0829,-0.0469 0.20413,-0.0827 0.32195,-0.0909 0.11782,-0.008 0.23219,0.011 0.31659,0.0493 0.0844,0.0382 0.13885,0.0954 0.16985,0.16815 0.031,0.0727 0.0386,0.16088 0.0279,0.24836 -0.0107,0.0875 -0.0396,0.17435 -0.0883,0.30937 -0.0487,0.13501 -0.11722,0.31828 -0.17611,0.45055 -0.0589,0.13227 -0.10824,0.21362 -0.21112,0.2087 -0.10288,-0.005 -0.25931,-0.0961 -0.30922,-0.16365 -0.0499,-0.0676 0.007,-0.11137 -0.006,-0.20944 z"
           id="path86" /><path
           style="fill:currentColor;fill-opacity:1;stroke:#ffffff;stroke-width:0.024;stroke-linecap:square;stroke-linejoin:round;stroke-dasharray:none;stroke-opacity:0;paint-order:markers stroke fill"
           d="m 100.68153,279.4613 c -0.0462,-0.0945 -0.1385,-0.2836 -0.19189,-0.40843 -0.0534,-0.12483 -0.0679,-0.18547 -0.0746,-0.253 -0.007,-0.0675 -0.006,-0.14195 0.017,-0.20809 0.0227,-0.0661 0.0672,-0.12403 0.15002,-0.17088 0.0829,-0.0469 0.20413,-0.0827 0.32195,-0.0909 0.11782,-0.008 0.23219,0.011 0.31659,0.0493 0.0844,0.0382 0.13885,0.0954 0.16985,0.16815 0.031,0.0727 0.0386,0.16088 0.0279,0.24836 -0.0107,0.0875 -0.0396,0.17435 -0.085,0.29867 -0.0454,0.12432 -0.10727,0.28617 -0.15352,0.45849 -0.0463,0.17232 -0.0769,0.35518 -0.14323,0.37636 -0.0663,0.0212 -0.1684,-0.11931 -0.22583,-0.2085 -0.0574,-0.0892 -0.0702,-0.12709 -0.0766,-0.14602 -0.006,-0.0189 -0.006,-0.0189 -0.0526,-0.11345 z"
           id="path86-3"
           transform="rotate(-68.456777,100.92236,279.83042)" /><path
           style="fill:currentColor;fill-opacity:1;stroke:#ffffff;stroke-width:0.024;stroke-linecap:square;stroke-linejoin:round;stroke-dasharray:none;stroke-opacity:0;paint-order:markers stroke fill"
           d="m 100.64196,279.38498 c -0.0382,-0.0793 -0.11475,-0.2378 -0.16023,-0.34737 -0.0455,-0.10957 -0.06,-0.17021 -0.0667,-0.23774 -0.007,-0.0675 -0.006,-0.14195 0.017,-0.20809 0.0227,-0.0661 0.0672,-0.12403 0.15002,-0.17088 0.0829,-0.0469 0.20413,-0.0827 0.32195,-0.0909 0.11782,-0.008 0.23219,0.011 0.31659,0.0493 0.0844,0.0382 0.13885,0.0954 0.16985,0.16815 0.031,0.0727 0.0386,0.16088 0.0279,0.24836 -0.0107,0.0875 -0.0396,0.17435 -0.0922,0.30816 -0.0525,0.13381 -0.12867,0.31452 -0.18762,0.44688 -0.0589,0.13235 -0.10056,0.21607 -0.17109,0.19523 -0.0705,-0.0208 -0.16988,-0.14629 -0.22249,-0.21065 -0.0526,-0.0643 -0.0589,-0.0679 -0.0618,-0.0695 -0.003,-0.002 -0.003,-0.002 -0.0412,-0.0809 z"
           id="path86-3-1"
           transform="rotate(69.252983,100.91636,279.80548)" /><path
           style="fill:currentColor;fill-opacity:1;stroke:#ffffff;stroke-width:0.024;stroke-linecap:square;stroke-linejoin:round;stroke-dasharray:none;stroke-opacity:0;paint-order:markers stroke fill"
           d="m 100.65543,279.50386 c -0.0409,-0.10305 -0.12284,-0.30913 -0.17101,-0.44248 -0.0482,-0.13334 -0.0626,-0.19398 -0.0694,-0.26151 -0.007,-0.0675 -0.006,-0.14195 0.017,-0.20809 0.0227,-0.0661 0.0672,-0.12403 0.15002,-0.17088 0.0829,-0.0469 0.20413,-0.0827 0.32195,-0.0909 0.11782,-0.008 0.23219,0.011 0.31659,0.0493 0.0844,0.0382 0.13885,0.0954 0.16985,0.16815 0.031,0.0727 0.0386,0.16088 0.0279,0.24836 -0.0107,0.0875 -0.0396,0.17435 -0.10014,0.31249 -0.0605,0.13813 -0.15262,0.32763 -0.21154,0.45992 -0.0589,0.13229 -0.0846,0.20737 -0.14121,0.23156 -0.0566,0.0242 -0.14406,-0.003 -0.19715,-0.0359 -0.0531,-0.0333 -0.0718,-0.0732 -0.0781,-0.10042 -0.006,-0.0272 1e-5,-0.0418 0.003,-0.0491 0.003,-0.007 0.003,-0.007 -0.0379,-0.11036 z"
           id="path86-3-1-3"
           transform="rotate(144.46424,100.91579,279.80463)" /><path
           style="fill:currentColor;fill-opacity:1;stroke:#ffffff;stroke-width:0.024;stroke-linecap:square;stroke-linejoin:round;stroke-dasharray:none;stroke-opacity:0;paint-order:markers stroke fill"
           d="m 100.6557,279.36934 c -0.041,-0.0761 -0.123,-0.22842 -0.17122,-0.33486 -0.0482,-0.10644 -0.0627,-0.16708 -0.0694,-0.23461 -0.007,-0.0675 -0.006,-0.14195 0.017,-0.20809 0.0227,-0.0661 0.0672,-0.12403 0.15002,-0.17088 0.0829,-0.0469 0.20413,-0.0827 0.32195,-0.0909 0.11782,-0.008 0.23219,0.011 0.31659,0.0493 0.0844,0.0382 0.13885,0.0954 0.16985,0.16815 0.031,0.0727 0.0386,0.16088 0.0279,0.24836 -0.0107,0.0875 -0.0396,0.17435 -0.097,0.32725 -0.0574,0.1529 -0.14333,0.37195 -0.20224,0.50425 -0.0589,0.13231 -0.0908,0.17783 -0.14363,0.16295 -0.0528,-0.0149 -0.12662,-0.0902 -0.17655,-0.15774 -0.0499,-0.0675 -0.076,-0.12726 -0.0891,-0.15712 -0.0131,-0.0299 -0.0131,-0.0299 -0.0541,-0.106 z"
           id="path86-3-1-3-0"
           transform="rotate(-142.91397,100.92249,279.79067)" /><path
           style="fill:none;fill-opacity:1;stroke:#00ff00;stroke-width:0.024;stroke-linecap:round;stroke-linejoin:round;stroke-dasharray:none;paint-order:markers stroke fill"
           d="m 100.85156,271.84887 -6.755239,11.85061 6.755239,-3.76362 4.94098,-2.20028 -4.84447,8.3765 -4.960283,-8.3572 4.940973,2.04587 4.94098,2.02656 -4.96027,-8.39578 -4.883085,8.3765 4.979585,-1.96869 6.65873,-3.95663 -6.73594,11.79273 -6.851741,-11.79273 13.606991,7.77819 z"
           id="path1" /><path
           style="fill:currentColor;fill-opacity:1;stroke:#ffffff;stroke-width:0.00400879;stroke-linecap:square;stroke-linejoin:round;stroke-dasharray:none;stroke-opacity:0;paint-order:markers stroke fill"
           d="m 355.66271,1042.8576 c -0.0916,0.2835 0.20913,0.5053 0.29979,0.7558 2.48067,4.304 4.97371,8.6011 7.4841,12.8878 0.1903,0.2857 0.33188,0.6129 0.56432,0.8663 0.29639,0.1279 0.38848,-0.2766 0.51944,-0.4503 0.41612,-0.742 0.85118,-1.4762 1.22062,-2.2424 -0.0113,-0.3241 -0.3037,-0.5738 -0.42731,-0.8662 -0.73483,-1.2459 -1.47445,-2.489 -2.21208,-3.7333 1.39956,0.531 2.76692,1.1491 4.16141,1.6883 0.30408,-0.054 0.38487,-0.4308 0.55621,-0.6443 0.18896,-0.3618 0.44428,-0.7069 0.54071,-1.1072 -0.0639,-0.298 -0.45917,-0.3395 -0.66706,-0.5179 -3.9247,-2.2456 -7.84799,-4.4944 -11.79017,-6.7089 -0.11033,-0.025 -0.16994,-0.01 -0.24998,0.072 z"
           id="path66"
           transform="scale(0.26458333)" /><path
           style="fill:currentColor;fill-opacity:1;stroke:#ffffff;stroke-width:0.00400879;stroke-linecap:square;stroke-linejoin:round;stroke-dasharray:none;stroke-opacity:0;paint-order:markers stroke fill"
           d="m 381.12667,1027.498 c -0.28654,0.2412 -0.40996,0.6337 -0.6258,0.9362 -3.51368,6.0665 -6.96851,12.1669 -10.42468,18.2663 -0.59721,1.0799 -1.23134,2.1422 -1.79552,3.2388 5.9e-4,0.3038 0.38891,0.3459 0.57986,0.509 0.65317,0.3517 1.27187,0.7852 1.96406,1.0555 0.31819,0.025 0.35946,-0.4075 0.52937,-0.5962 3.34536,-5.7147 6.65016,-11.4544 10.03813,-17.1431 3.54302,5.8666 6.99517,11.8014 10.50337,17.6941 0.17652,0.297 0.49505,0.016 0.69708,-0.094 0.57813,-0.3447 1.1666,-0.6751 1.72756,-1.0469 0.19531,-0.2719 -0.14961,-0.5492 -0.24106,-0.7953 -4.23943,-7.3133 -8.45086,-14.6428 -12.70827,-21.9456 -0.0726,-0.078 -0.13919,-0.1033 -0.2441,-0.078 z"
           id="path67"
           transform="scale(0.26458333)" /><path
           style="fill:currentColor;fill-opacity:1;stroke:#ffffff;stroke-width:0.00400879;stroke-linecap:square;stroke-linejoin:round;stroke-dasharray:none;stroke-opacity:0;paint-order:markers stroke fill"
           d="m 367.22976,1051.6618 c -0.54276,0.9591 -1.09692,1.912 -1.62742,2.8779 -0.0433,0.3039 0.24531,0.5412 0.3508,0.8101 0.4226,0.691 0.78586,1.4265 1.27843,2.0705 0.22862,0.2091 0.42349,-0.114 0.503,-0.3026 0.81443,-1.3957 1.63319,-2.7892 2.42987,-4.195 0.0696,-0.3417 -0.39707,-0.3442 -0.60495,-0.4774 -0.71032,-0.2822 -1.41213,-0.6035 -2.12616,-0.8652 -0.0933,-0.031 -0.13659,0.03 -0.20357,0.082 z"
           id="path68"
           transform="scale(0.26458333)" /><path
           style="fill:currentColor;fill-opacity:1;stroke:#ffffff;stroke-width:0.00400879;stroke-linecap:square;stroke-linejoin:round;stroke-dasharray:none;stroke-opacity:0;paint-order:markers stroke fill"
           d="m 365.5553,1054.7688 c -0.29492,0.3606 -0.44584,0.8251 -0.69715,1.2189 -0.24798,0.4621 -0.53028,0.9108 -0.79207,1.361 -0.01,0.3706 0.29341,0.6655 0.4378,0.9891 0.37518,0.63 0.72171,1.285 1.11786,1.8975 0.25165,0.2216 0.40544,-0.1979 0.51195,-0.3715 0.43415,-0.751 0.87933,-1.4958 1.30168,-2.2534 0.0478,-0.2879 -0.25134,-0.4815 -0.36136,-0.724 -0.4443,-0.6816 -0.81383,-1.4022 -1.26053,-2.082 -0.0619,-0.063 -0.18187,-0.082 -0.25818,-0.036 z"
           id="path69"
           transform="scale(0.26458333)" /><path
           style="fill:currentColor;fill-opacity:1;stroke:#ffffff;stroke-width:0.00400879;stroke-linecap:square;stroke-linejoin:round;stroke-dasharray:none;stroke-opacity:0;paint-order:markers stroke fill"
           d="m 363.96681,1057.4711 c -0.50135,0.7584 -0.91797,1.5785 -1.38566,2.361 -2.29142,4.0077 -4.59395,8.0095 -6.85758,12.0329 -0.1201,0.2232 0.18255,0.4414 0.36618,0.2655 4.15426,-2.2989 8.30509,-4.6041 12.44849,-6.9225 0.24691,-0.2385 -0.11434,-0.5185 -0.19307,-0.7546 -0.24462,-0.3961 -0.43804,-0.8384 -0.7196,-1.2044 -0.22509,-0.1527 -0.47966,0.1027 -0.71132,0.1467 -1.22301,0.4735 -2.43621,0.9653 -3.66231,1.4297 0.81634,-1.47 1.72505,-2.8892 2.50146,-4.3807 0.16164,-0.305 -0.19605,-0.5436 -0.2949,-0.8062 -0.41557,-0.7077 -0.83477,-1.4126 -1.21236,-2.1354 -0.0776,-0.086 -0.1814,-0.073 -0.27933,-0.032 z"
           id="path70"
           transform="scale(0.26458333)" /><path
           style="fill:currentColor;fill-opacity:1;stroke:#ffffff;stroke-width:0.00400879;stroke-linecap:square;stroke-linejoin:round;stroke-dasharray:none;stroke-opacity:0;paint-order:markers stroke fill"
           d="m 368.28757,1050.024 c -0.24601,0.1892 -0.30262,0.5371 -0.48265,0.7846 -0.13285,0.2785 -0.36664,0.517 -0.42885,0.8211 0.14534,0.2723 0.52758,0.2688 0.77393,0.4212 0.64245,0.246 1.26187,0.5609 1.91613,0.7711 0.29069,-0.024 0.35442,-0.3911 0.51509,-0.5848 0.12342,-0.2566 0.34033,-0.4793 0.38916,-0.7633 -0.12761,-0.2494 -0.46701,-0.2547 -0.67745,-0.4192 -0.62908,-0.3327 -1.23211,-0.7082 -1.86665,-1.0328 -0.0462,7e-4 -0.0925,0 -0.13871,0 z"
           id="path71"
           transform="scale(0.26458333)" /><path
           style="fill:currentColor;fill-opacity:1;stroke:#ffffff;stroke-width:0.00400879;stroke-linecap:square;stroke-linejoin:round;stroke-dasharray:none;stroke-opacity:0;paint-order:markers stroke fill"
           d="m 370.07407,1062.143 c -0.82466,0.3365 -1.67123,0.6375 -2.48225,0.9961 -0.24303,0.2133 0.12639,0.4705 0.19624,0.6833 0.26226,0.4046 0.43423,0.8762 0.74931,1.2417 0.25437,0.1271 0.48176,-0.176 0.71186,-0.2489 0.58789,-0.3381 1.19671,-0.6466 1.76612,-1.0132 0.18102,-0.27 -0.12907,-0.5553 -0.23031,-0.7957 -0.19826,-0.2827 -0.31375,-0.6379 -0.57399,-0.8669 -0.0457,0 -0.0913,0 -0.13698,0 z"
           id="path72"
           transform="scale(0.26458333)" /><path
           style="fill:currentColor;fill-opacity:1;stroke:#ffffff;stroke-width:0.00400879;stroke-linecap:square;stroke-linejoin:round;stroke-dasharray:none;stroke-opacity:0;paint-order:markers stroke fill"
           d="m 367.28768,1057.5707 c -0.54763,0.8572 -1.02889,1.763 -1.55465,2.6359 -0.009,0.3395 0.26811,0.6176 0.3969,0.9191 0.41461,0.7167 0.8143,1.4502 1.25638,2.1457 0.23436,0.1776 0.50871,-0.119 0.7516,-0.1709 0.64693,-0.2947 1.34338,-0.4857 1.96672,-0.8279 0.26831,-0.2317 -0.1121,-0.5251 -0.1992,-0.7539 -0.78737,-1.3083 -1.54509,-2.6364 -2.35828,-3.928 -0.0944,-0.062 -0.15663,-0.066 -0.25947,-0.02 z"
           id="path73"
           transform="scale(0.26458333)" /><path
           style="fill:currentColor;fill-opacity:1;stroke:#ffffff;stroke-width:0.00400879;stroke-linecap:square;stroke-linejoin:round;stroke-dasharray:none;stroke-opacity:0;paint-order:markers stroke fill"
           d="m 391.85973,1063.4129 c -0.26311,0.2219 -0.36765,0.589 -0.56837,0.8663 -3.2712,5.5809 -6.47247,11.2075 -9.75684,16.7764 -3.47687,-5.7517 -6.8799,-11.5485 -10.32185,-17.3219 -0.23089,-0.2514 -0.50317,0.1055 -0.7286,0.189 -0.62013,0.3501 -1.25052,0.6927 -1.8653,1.0458 -0.15735,0.2689 0.14143,0.5371 0.23007,0.7816 2.3878,4.2267 4.85688,8.4069 7.28764,12.6089 1.72403,2.9464 3.42437,5.9073 5.18224,8.8336 0.22168,0.2318 0.41511,-0.097 0.49658,-0.2855 3.9532,-6.9158 7.92544,-13.8209 11.83698,-20.7604 0.21927,-0.4279 0.4975,-0.8328 0.66549,-1.2837 -0.0177,-0.2854 -0.39286,-0.327 -0.57813,-0.484 -0.57875,-0.3249 -1.15077,-0.6638 -1.74112,-0.9668 -0.0463,2e-4 -0.0925,5e-4 -0.13879,7e-4 z"
           id="path74"
           transform="scale(0.26458333)" /><path
           style="fill:currentColor;fill-opacity:1;stroke:#ffffff;stroke-width:0.00400879;stroke-linecap:square;stroke-linejoin:round;stroke-dasharray:none;stroke-opacity:0;paint-order:markers stroke fill"
           d="m 380.58313,1058.0192 c -3.44709,1.3038 -6.86274,2.6926 -10.29439,4.0377 -0.29881,0.2053 0.0742,0.5063 0.16596,0.7289 0.21179,0.2869 0.30642,0.6665 0.56998,0.9087 0.28234,0.1006 0.50986,-0.2071 0.75992,-0.2937 2.98349,-1.6781 5.99162,-3.3136 8.95667,-5.0238 0.15949,-0.1254 0.0428,-0.3914 -0.15814,-0.3578 z"
           id="path75"
           transform="scale(0.26458333)" /><path
           style="fill:currentColor;fill-opacity:1;stroke:#ffffff;stroke-width:0.00400879;stroke-linecap:square;stroke-linejoin:round;stroke-dasharray:none;stroke-opacity:0;paint-order:markers stroke fill"
           d="m 370.8504,1051.4889 c -0.28545,0.3926 -0.5282,0.8297 -0.75631,1.2549 -0.056,0.3189 0.39768,0.316 0.59318,0.4465 3.12561,1.2923 6.24468,2.6008 9.37745,3.8757 0.27858,0.1024 0.39515,-0.3269 0.13456,-0.4187 -2.99122,-1.7419 -6.00509,-3.4457 -9.03279,-5.1234 -0.0989,-0.065 -0.2048,-0.098 -0.31609,-0.035 z"
           id="path76"
           transform="scale(0.26458333)" /><path
           style="fill:currentColor;fill-opacity:1;stroke:#ffffff;stroke-width:0.00400879;stroke-linecap:square;stroke-linejoin:round;stroke-dasharray:none;stroke-opacity:0;paint-order:markers stroke fill"
           d="m 391.97297,1051.4445 c -3.19557,1.8955 -6.39264,3.7895 -9.5796,5.6997 -0.23146,0.1469 0.0136,0.489 0.23374,0.35 2.93412,-1.254 5.83382,-2.5881 8.75307,-3.8765 0.49533,-0.243 1.03694,-0.4179 1.50421,-0.7021 0.15581,-0.2495 -0.18547,-0.4864 -0.26586,-0.7179 -0.17582,-0.2465 -0.271,-0.5629 -0.50693,-0.7573 -0.0462,0 -0.0924,0 -0.13863,0 z"
           id="path77"
           transform="scale(0.26458333)" /><path
           style="fill:currentColor;fill-opacity:1;stroke:#ffffff;stroke-width:0.00400879;stroke-linecap:square;stroke-linejoin:round;stroke-dasharray:none;stroke-opacity:0;paint-order:markers stroke fill"
           d="m 382.73544,1057.9981 c -0.23917,0.1648 -0.006,0.4109 0.18817,0.4725 2.9417,1.7086 5.89279,3.402 8.8599,5.0658 0.32245,0.048 0.37895,-0.377 0.54331,-0.5737 0.1359,-0.2825 0.37738,-0.5469 0.39081,-0.8697 -0.12827,-0.2656 -0.50633,-0.2566 -0.73788,-0.4031 -3.03553,-1.2357 -6.05755,-2.5067 -9.10655,-3.7081 -0.0459,0.01 -0.0918,0.011 -0.13776,0.016 z"
           id="path78"
           transform="scale(0.26458333)" /><path
           style="fill:currentColor;fill-opacity:1;stroke:#ffffff;stroke-width:0.00400879;stroke-linecap:square;stroke-linejoin:round;stroke-dasharray:none;stroke-opacity:0;paint-order:markers stroke fill"
           d="m 398.44837,1057.4103 c -0.27047,0.228 -0.37907,0.6025 -0.57983,0.8906 -0.29685,0.5385 -0.62798,1.0618 -0.89023,1.6176 0.0434,0.3435 0.32539,0.6135 0.46387,0.9261 0.78553,1.3526 1.58787,2.6953 2.37491,4.0469 -1.50259,-0.5835 -2.9823,-1.238 -4.48736,-1.8066 -0.28416,-5e-4 -0.3509,0.37 -0.50526,0.5525 -0.2036,0.3946 -0.49801,0.7632 -0.61002,1.1948 0.0995,0.2758 0.46217,0.3224 0.67741,0.4941 3.91996,2.2347 7.82493,4.4959 11.75384,6.7147 0.26377,0.1152 0.41133,-0.2644 0.21037,-0.4257 -2.72262,-4.7055 -5.43944,-9.4143 -8.16368,-14.1189 -0.075,-0.083 -0.13336,-0.1046 -0.24402,-0.086 z"
           id="path79"
           transform="scale(0.26458333)" /><path
           style="fill:currentColor;fill-opacity:1;stroke:#ffffff;stroke-width:0.00400879;stroke-linecap:square;stroke-linejoin:round;stroke-dasharray:none;stroke-opacity:0;paint-order:markers stroke fill"
           d="m 395.42383,1057.2315 c -0.28342,0.1911 -0.36778,0.5719 -0.5677,0.8409 -0.74901,1.3113 -1.51462,2.6143 -2.23828,3.9393 -0.0251,0.3352 0.41539,0.3346 0.6308,0.4725 0.63679,0.2529 1.26418,0.554 1.91062,0.7686 0.2815,4e-4 0.32331,-0.3795 0.4807,-0.5537 0.50171,-0.8732 1.01667,-1.7399 1.48844,-2.6295 0.0307,-0.2971 -0.24081,-0.5311 -0.34449,-0.7954 -0.38629,-0.6644 -0.74776,-1.3464 -1.17252,-1.9866 -0.0445,-0.05 -0.12719,-0.051 -0.18757,-0.056 z"
           id="path80"
           transform="scale(0.26458333)" /><path
           style="fill:currentColor;fill-opacity:1;stroke:#ffffff;stroke-width:0.00400879;stroke-linecap:square;stroke-linejoin:round;stroke-dasharray:none;stroke-opacity:0;paint-order:markers stroke fill"
           d="m 392.67145,1062.1019 c -0.22468,0.114 -0.2509,0.4226 -0.40282,0.6126 -0.1143,0.2519 -0.32713,0.4689 -0.36678,0.7469 0.17866,0.273 0.54677,0.348 0.80767,0.5339 0.49483,0.2583 0.9717,0.5669 1.46401,0.8199 0.32466,-0.01 0.37975,-0.4296 0.54381,-0.6382 0.14189,-0.3229 0.43161,-0.6087 0.48707,-0.9656 -0.0846,-0.2644 -0.43583,-0.2389 -0.63676,-0.3688 -0.61539,-0.2333 -1.21611,-0.5193 -1.83,-0.747 -0.0222,0 -0.0441,0 -0.0662,0.01 z m -0.15926,0.1734 c 7.5e-4,-0.014 0.019,-0.06 0,0 z"
           id="path81"
           transform="scale(0.26458333)" /><path
           style="fill:currentColor;fill-opacity:1;stroke:#ffffff;stroke-width:0.00400879;stroke-linecap:square;stroke-linejoin:round;stroke-dasharray:none;stroke-opacity:0;paint-order:markers stroke fill"
           d="m 396.92755,1054.7333 c -0.27936,0.1375 -0.36592,0.493 -0.54937,0.7287 -0.32301,0.5608 -0.67142,1.1152 -0.96373,1.6884 -0.0192,0.2778 0.2585,0.4873 0.36706,0.7358 0.39554,0.6393 0.74034,1.3158 1.14102,1.947 0.22221,0.2122 0.38776,-0.1361 0.4601,-0.3126 0.3842,-0.7107 0.80186,-1.4103 1.20386,-2.0961 -0.0143,-0.2855 -0.27744,-0.5206 -0.38877,-0.7851 -0.37401,-0.6133 -0.69758,-1.2681 -1.10782,-1.8539 -0.0399,-0.056 -0.10343,-0.043 -0.16235,-0.052 z"
           id="path82"
           transform="scale(0.26458333)" /><path
           style="fill:currentColor;fill-opacity:1;stroke:#ffffff;stroke-width:0.00400879;stroke-linecap:square;stroke-linejoin:round;stroke-dasharray:none;stroke-opacity:0;paint-order:markers stroke fill"
           d="m 406.57561,1042.7935 c -4.0838,2.3897 -8.15276,4.8059 -12.21184,7.2375 -0.24262,0.2251 0.0774,0.5101 0.1552,0.7407 0.20147,0.342 0.3542,0.7299 0.61028,1.0305 0.23354,0.1479 0.48306,-0.1243 0.7158,-0.1778 1.22682,-0.5354 2.44588,-1.0883 3.67201,-1.6253 -0.85927,1.5504 -1.78958,3.0746 -2.64273,4.626 -0.0215,0.2781 0.26912,0.4799 0.37336,0.7294 0.41324,0.6466 0.73683,1.3624 1.19257,1.9825 0.30368,0.1597 0.39818,-0.2782 0.53229,-0.4565 2.63164,-4.6007 5.26192,-9.2022 7.86693,-13.8179 0.0669,-0.1701 -0.0942,-0.3348 -0.26387,-0.2691 z"
           id="path83"
           transform="scale(0.26458333)" /><path
           style="fill:currentColor;fill-opacity:1;stroke:#ffffff;stroke-width:0.00400879;stroke-linecap:square;stroke-linejoin:round;stroke-dasharray:none;stroke-opacity:0;paint-order:markers stroke fill"
           d="m 395.14391,1051.7013 c -0.76748,0.2976 -1.52888,0.6252 -2.26271,0.9979 -0.2063,0.2496 0.12531,0.518 0.2069,0.7552 0.70479,1.2468 1.43992,2.4765 2.17846,3.7035 0.24058,0.243 0.42244,-0.1321 0.51357,-0.3214 0.40527,-0.6904 0.77612,-1.4169 1.26332,-2.0473 0.0166,-0.2793 -0.25801,-0.5103 -0.36132,-0.7668 -0.45676,-0.7587 -0.86132,-1.5555 -1.36689,-2.2813 -0.0573,-0.011 -0.1103,-0.061 -0.17133,-0.04 z"
           id="path84"
           transform="scale(0.26458333)" /><path
           style="fill:currentColor;fill-opacity:1;stroke:#ffffff;stroke-width:0.00400879;stroke-linecap:square;stroke-linejoin:round;stroke-dasharray:none;stroke-opacity:0;paint-order:markers stroke fill"
           d="m 394.24664,1050.1928 c -0.44633,0.2049 -0.84262,0.5197 -1.27953,0.75 -0.2694,0.185 -0.59505,0.3015 -0.82988,0.5294 -0.0675,0.2982 0.21147,0.5465 0.32392,0.8033 0.16351,0.1948 0.26176,0.6511 0.58716,0.5221 0.6771,-0.3142 1.35225,-0.6076 2.04156,-0.8911 0.27156,-0.198 -0.0504,-0.4845 -0.13094,-0.6871 -0.21606,-0.3253 -0.32783,-0.7427 -0.6132,-1.0155 -0.033,0 -0.0661,-0.012 -0.0991,-0.011 z"
           id="path85"
           transform="scale(0.26458333)" /></g></g></g></svg>
